<?xml version="1.0" encoding="UTF-8" standalone="no"?>
<svg width="327.12" xmlns="http://www.w3.org/2000/svg" xmlns:xlink="http://www.w3.org/1999/xlink" height="236">
 <defs>
  <linearGradient id="linearGradient4032" y2=".18326" xlink:href="#linearGradient3228" x2="1.0922" y1=".17834" x1=".40783"/>
  <linearGradient id="linearGradient4030" y2=".34457" xlink:href="#linearGradient3228" x2="1.1843" y1=".34061" x1="0.5"/>
  <linearGradient id="linearGradient4400" y2="-.004405" x2=".51682" y1="1.2292" x1=".51682">
   <stop id="stop4396" stop-color="#366b04" offset="0"/>
   <stop id="stop4398" stop-color="#366b04" stop-opacity="0" offset="1"/>
  </linearGradient>
  <linearGradient id="linearGradient4028" y2=".19364" xlink:href="#linearGradient3228" x2=".62675" y1=".14776" x1="1.0001"/>
  <linearGradient id="linearGradient4024" y2=".31485" xlink:href="#linearGradient3294" x2="-.43645" y1=".30806" x1=".17080"/>
  <linearGradient id="linearGradient4022" y2=".18385" xlink:href="#linearGradient3284" x2="1.2626" y1=".17892" x1=".47360"/>
  <linearGradient id="linearGradient4026" y2=".081552" xlink:href="#linearGradient3228" x2=".97531" y1=".068597" x1=".4465"/>
  <linearGradient id="linearGradient4288" y2="-.24532" xlink:href="#linearGradient3814" x2=".48046" y1=".93574" x1=".48046"/>
  <linearGradient id="linearGradient4302" y2=".19364" xlink:href="#linearGradient3228" x2=".37325" y1=".14776" x1="-.000069"/>
  <linearGradient id="linearGradient4300" y2=".068665" xlink:href="#linearGradient3228" x2="-.26353" y1=".055529" x1=".42155"/>
  <linearGradient id="linearGradient4290" y2=".11860" xlink:href="#linearGradient3284" x2="-.22416" y1=".11328" x1=".44928"/>
  <linearGradient id="linearGradient4298" xlink:href="#linearGradient3284" x2="-.0001" y1=".58833" x1="1"/>
  <linearGradient id="linearGradient4294" y2=".28063" xlink:href="#linearGradient3284" x2="-.26264" y1=".27629" x1=".52640"/>
  <linearGradient id="linearGradient4292" y2="-.078081" xlink:href="#linearGradient3284" x2="1.0002" y1=".55619" x1="-.65330"/>
  <linearGradient id="linearGradient4296" y2=".31485" xlink:href="#linearGradient3294" x2="1.4364" y1=".30806" x1=".82919"/>
  <linearGradient id="linearGradient4020" y2="-.078081" xlink:href="#linearGradient3284" x2="-.000165" y1=".55619" x1="1.6533"/>
  <linearGradient id="linearGradient3996" y2=".11860" xlink:href="#linearGradient3284" x2="1.2242" y1=".11328" x1=".55072"/>
  <linearGradient id="linearGradient4018" y2=".11860" xlink:href="#linearGradient3284" x2="1.2242" y1=".11328" x1=".55072"/>
  <linearGradient id="linearGradient3994" y2=".21941" xlink:href="#linearGradient3228" x2=".054788" y1=".21470" x1=".64546"/>
  <linearGradient id="linearGradient3990" y2=".34457" xlink:href="#linearGradient3228" x2="-.18434" y1=".34061" x1="0.5"/>
  <linearGradient id="linearGradient3992" y2=".18326" xlink:href="#linearGradient3228" x2="-.092172" y1=".17834" x1=".59217"/>
  <linearGradient id="linearGradient4000" y2=".28063" xlink:href="#linearGradient3284" x2="1.2626" y1=".27629" x1=".47360"/>
  <linearGradient id="linearGradient4016" y2=".21941" xlink:href="#linearGradient3228" x2=".94521" y1=".21470" x1=".35454"/>
  <linearGradient id="linearGradient4014" y2=".21941" xlink:href="#linearGradient3228" x2=".94521" y1=".21470" x1=".35454"/>
  <linearGradient id="linearGradient4002" y2=".31485" xlink:href="#linearGradient3294" x2="-.43645" y1=".30806" x1=".17080"/>
  <linearGradient id="linearGradient4012" y2=".18327" xlink:href="#linearGradient3228" x2="1.0922" y1=".17834" x1=".40783"/>
  <linearGradient id="linearGradient4010" y2=".34457" xlink:href="#linearGradient3228" x2="-.18434" y1=".34061" x1="0.5"/>
  <linearGradient id="linearGradient4004" xlink:href="#linearGradient3284" x2="1.0001" y1=".58833" x1="-.000001"/>
  <linearGradient id="linearGradient4006" y2=".068665" xlink:href="#linearGradient3228" x2="1.2635" y1=".055529" x1=".57845"/>
  <linearGradient id="linearGradient4304" y2=".34457" xlink:href="#linearGradient3228" x2="1.1843" y1=".34061" x1="0.5"/>
  <linearGradient id="linearGradient4306" y2=".18327" xlink:href="#linearGradient3228" x2="-.092171" y1=".17834" x1=".59217"/>
  <linearGradient id="linearGradient4316" y2=".18385" xlink:href="#linearGradient3284" x2="-.26264" y1=".17892" x1=".52640"/>
  <linearGradient id="linearGradient4314" y2="-.078081" xlink:href="#linearGradient3284" x2="1.0002" y1=".55619" x1="-.65330"/>
  <linearGradient id="linearGradient4310" y2=".21941" xlink:href="#linearGradient3228" x2=".054787" y1=".21470" x1=".64546"/>
  <linearGradient id="linearGradient4312" y2=".11860" xlink:href="#linearGradient3284" x2="-.22416" y1=".11328" x1=".44928"/>
  <linearGradient id="linearGradient4322" y2=".081552" xlink:href="#linearGradient3228" x2=".024693" y1=".068597" x1=".55350"/>
  <linearGradient id="linearGradient3284">
   <stop id="stop3286" stop-color="#336404" offset="0"/>
   <stop id="stop3288" stop-color="#4e9a06" offset="1"/>
  </linearGradient>
  <linearGradient id="linearGradient3294">
   <stop id="stop3296" stop-color="#4e9a06" offset="0"/>
   <stop id="stop3298" stop-color="#336404" offset="1"/>
  </linearGradient>
  <linearGradient id="linearGradient3814">
   <stop id="stop3816" stop-color="#336404" offset="0"/>
   <stop id="stop3818" stop-color="#336404" stop-opacity="0" offset="1"/>
  </linearGradient>
  <linearGradient id="linearGradient3228">
   <stop id="stop3230" stop-color="#73d216" offset="0"/>
   <stop id="stop3232" stop-color="#4e9a06" offset="1"/>
  </linearGradient>
 </defs>
 <g id="layer1" stroke-linejoin="bevel" externalResourcesRequired="false" stroke-width="2" stroke-linecap="round">
  <g id="g3822">
   <path id="path3507" fill="url(#linearGradient4288)" d="m-165.59 113.17c-5.019 8.2242-20.601 64.284-26.15 63.328-5.6013 0.28462-6.0985-12.682-6.7598-24.695-0.56132-10.195-1.2266-19.716-5.3368-19.737-5.0981-0.026855-25.806 33.331-34.956 31.056-2.7136-0.6749-0.24364-19.982-1.2452-25.63l-11.118 55.47-20.191-48.361-18.056 21.234-13.075-12.348v210.66h318.6v-195.6l-13.075 11.506-18.056-19.737-20.191 44.9-11.118-51.541c-1.0016 5.2445 1.4683 23.226-1.2452 23.853-9.1496 2.1125-29.857-28.836-34.956-28.811-4.1101 0.020111-4.7754 8.775-5.3368 18.241-0.66133 11.153-1.1586 23.275-6.7598 23.011-5.5488 0.88753-21.131-51.202-26.15-58.838-4.8494 6.431 4.5029 21.257-3.0242 27.688l-7.0267-6.2673-13.876-26.566-17.878 17.024c-7.527-6.9268 1.8253-22.913-3.0241-29.84z"/>
   <path id="path3270" fill="url(#linearGradient4290)" d="m-264.89 172.09s-17.387 80.062-18.216 121.48c-0.4541 22.669-11.395 74.527-11.395 74.527l18.992 0.6595s7.1624-87.279 6.1963-128.85c-0.62308-26.808 4.4233-67.817 4.4233-67.817z"/>
   <path id="path3318" fill="url(#linearGradient4292)" d="m-240.68 97.929s11.306 100.56 10.583 161.04c-0.39578 33.102-9.932 108.83-9.932 108.83l16.553 0.963s6.2428-127.45 5.4007-188.15c-0.54308-39.146-22.605-82.683-22.605-82.683z"/>
   <path id="path3244" fill="url(#linearGradient4294)" d="m-248.34 127.8s16.857 106.97 10.736 165.78c-2.3475 22.552-11.395 74.527-11.395 74.527l18.992 0.6595s7.1624-87.279 6.1963-128.85c-0.62311-26.808-24.529-112.12-24.529-112.12z"/>
   <path id="path3290" fill="url(#linearGradient4296)" d="m-277.01 36.869l-10.863 233.11 1.5545 98.749-13.097 0.037 9.1368-239.11 13.269-92.781z"/>
   <path id="path3248" fill="url(#linearGradient4298)" d="m-259.27 134.97s-26.122 97.454-25.399 145.88c0.39578 26.506 9.932 87.138 9.932 87.138l-16.553 0.7711s-6.2428-102.05-5.4007-150.65c0.54309-31.345 37.421-83.138 37.421-83.138z"/>
   <path id="path3266" fill="url(#linearGradient4300)" d="m-255.67 67.07l-10.681 0.9246 7.0086 178.9-9.6214 120.8 16.036 1.069 5.2318-208.86-14.95-84.369 6.9758-8.4664z"/>
   <path id="path3262" fill="url(#linearGradient4302)" d="m-208.3 123.63s-37.357 108.79-36.721 157.22c0.34839 26.506 8.7428 87.139 8.7428 87.139l-14.571 0.771s-5.4953-102.05-4.754-150.65c0.47807-31.345 47.303-94.477 47.303-94.477z"/>
   <path id="rect2455" fill="url(#linearGradient4304)" d="m-290.78-59.926l-10.69 306.82 9.6213 120.8-16.036 1.069-7.4996-293.52 24.604-135.17z"/>
   <path id="path3236" fill="url(#linearGradient4306)" d="m-229.97 24.738l12.958 222.15-9.6214 120.8 16.036 1.069 5.2318-208.86-24.604-135.17z"/>
   <path id="path3240" fill="url(#linearGradient3994)" d="m-290.29 146.7s20.712 105.46 19.882 146.88c-0.45407 22.669-11.395 74.527-11.395 74.527l18.992 0.6595s7.1624-87.279 6.1963-128.85c-0.62305-26.808-33.676-93.217-33.676-93.217z"/>
   <path id="path3314" fill="url(#linearGradient4310)" d="m-261.72 146.7s20.712 105.46 19.882 146.88c-0.45412 22.669-11.395 74.527-11.395 74.527l18.992 0.6595s7.1624-87.279 6.1963-128.85c-0.62309-26.808-33.675-93.217-33.675-93.217z"/>
   <path id="path3339" fill="url(#linearGradient4312)" d="m-160.7 172.09s-17.387 80.062-18.216 121.48c-0.45409 22.669-11.395 74.527-11.395 74.527l18.992 0.6595s7.1624-87.279 6.1962-128.85c-0.62305-26.808 4.4234-67.817 4.4234-67.817z"/>
   <path id="path3341" fill="url(#linearGradient4314)" d="m-149.88 97.929s11.306 100.56 10.583 161.04c-0.39577 33.102-9.932 108.83-9.932 108.83l16.553 0.963s6.2428-127.45 5.4007-188.15c-0.54307-39.146-22.605-82.683-22.605-82.683z"/>
   <path id="path3343" fill="url(#linearGradient4316)" d="m-173.98 156.37s16.328 78.398 10.207 137.2c-2.3475 22.552-11.395 74.527-11.395 74.527l18.992 0.6595s7.1624-87.279 6.1963-128.85c-0.62305-26.808-24-83.541-24-83.541z"/>
   <path id="path3345" fill="url(#linearGradient4296)" d="m-200.64 36.869l-10.863 233.11 1.5545 98.749-13.097 0.037 9.1368-239.11 13.269-92.781z"/>
   <path id="path3347" fill="url(#linearGradient4298)" d="m-174.07 134.97s-26.122 97.454-25.399 145.88c0.39575 26.506 9.932 87.138 9.932 87.138l-16.553 0.7711s-6.2428-102.05-5.4007-150.65c0.54304-31.345 37.421-83.138 37.421-83.138z"/>
   <path id="path3349" fill="url(#linearGradient4322)" d="m-155.04 67.6l8.8978 0.3955 7.0086 178.9-9.6214 120.8 16.036 1.069 5.2318-208.86-15.479-97.069-12.074 4.7623z"/>
   <path id="path3351" fill="url(#linearGradient4302)" d="m-127.62 123.63s-37.357 108.79-36.72 157.22c0.3484 26.506 8.7428 87.139 8.7428 87.139l-14.571 0.771s-5.4953-102.05-4.754-150.65c0.47803-31.345 47.303-94.477 47.303-94.477z"/>
   <path id="path3353" fill="url(#linearGradient3990)" d="m-206.66-22.885l10.69 280.31-9.6214 110.36 16.036 0.9767 7.4996-268.16-24.604-123.49z"/>
   <path id="path3355" fill="url(#linearGradient3992)" d="m-183.22 24.738l12.958 222.15-9.6214 120.8 16.036 1.069 5.2318-208.86-24.604-135.17z"/>
   <path id="path3357" fill="url(#linearGradient3994)" d="m-167.71 146.7s20.712 105.46 19.883 146.88c-0.4541 22.669-11.395 74.527-11.395 74.527l18.992 0.6595s7.1624-87.279 6.1963-128.85c-0.62305-26.808-33.676-93.217-33.676-93.217z"/>
   <path id="path3359" fill="#4d9805" d="m-158.9 146.7s20.712 105.46 19.882 146.88c-0.4541 22.669-11.395 74.527-11.395 74.527l18.992 0.6595s7.1624-87.279 6.1962-128.85c-0.62305-26.808-33.675-93.217-33.675-93.217z"/>
   <path id="path3509" fill="url(#linearGradient3996)" d="m-88.822 172.09s17.387 80.062 18.216 121.48c0.4541 22.669 11.395 74.527 11.395 74.527l-18.992 0.6595s-7.1624-87.279-6.1962-128.85c0.62304-26.808-4.4234-67.817-4.4234-67.817z"/>
   <path id="path3511" fill="url(#linearGradient4020)" d="m-11.264 97.929s-11.306 100.56-10.583 161.04c0.39577 33.102 9.932 108.83 9.932 108.83l-16.553 0.963s-6.2428-127.45-5.4007-188.15c0.54307-39.146 22.605-82.683 22.605-82.683z"/>
   <path id="path3513" fill="url(#linearGradient4000)" d="m-105.38 127.8s-16.857 106.97-10.736 165.78c2.3475 22.552 11.395 74.527 11.395 74.527l-18.992 0.6595s-7.1624-87.279-6.1963-128.85c0.62305-26.808 24.529-112.12 24.529-112.12z"/>
   <path id="path3515" fill="url(#linearGradient4002)" d="m-76.706 36.869l10.863 233.11-1.5545 98.749 13.097 0.037-9.1368-239.11-13.269-92.781z"/>
   <path id="path3517" fill="url(#linearGradient4004)" d="m-94.447 134.97s26.122 97.454 25.399 145.88c-0.39577 26.506-9.932 87.138-9.932 87.138l16.553 0.7711s6.2428-102.05 5.4007-150.65c-0.54307-31.345-37.421-83.138-37.421-83.138z"/>
   <path id="path3519" fill="url(#linearGradient4006)" d="m-98.044 67.07l10.681 0.9246-7.0086 178.9 9.6214 120.8-16.036 1.069-5.2318-208.86 14.95-84.369-6.9758-8.4664z"/>
   <path id="path3521" fill="url(#linearGradient4028)" d="m-45.14 123.63s37.357 108.79 36.72 157.22c-0.34841 26.506-8.7428 87.139-8.7428 87.139l14.571 0.771s5.4953-102.05 4.754-150.65c-0.47804-31.345-47.303-94.477-47.303-94.477z"/>
   <path id="path3523" fill="url(#linearGradient4010)" d="m-106.33-59.926l10.69 306.82-9.6214 120.8 16.036 1.069 7.4996-293.52-24.604-135.17z"/>
   <path id="path3525" fill="url(#linearGradient4012)" d="m21.43 24.738l-12.958 222.15 9.6214 120.8-16.036 1.069-5.2318-208.86 24.604-135.17z"/>
   <path id="path3527" fill="url(#linearGradient4014)" d="m-63.423 146.7s-20.712 105.46-19.882 146.88c0.4541 22.669 11.395 74.527 11.395 74.527l-18.992 0.6595s-7.1624-87.279-6.1962-128.85c0.62305-26.808 33.675-93.217 33.675-93.217z"/>
   <path id="path3529" fill="url(#linearGradient4016)" d="m-91.997 146.7s-20.712 105.46-19.883 146.88c0.4541 22.669 11.395 74.527 11.395 74.527l-18.992 0.6595s-7.1624-87.279-6.1962-128.85c0.62305-26.808 33.676-93.217 33.676-93.217z"/>
   <path id="path3531" fill="url(#linearGradient4018)" d="m-47.834 172.09s17.387 80.062 18.216 121.48c0.45408 22.669 11.395 74.527 11.395 74.527l-18.992 0.6595s-7.1624-87.279-6.1962-128.85c0.62305-26.808-4.4234-67.817-4.4234-67.817z"/>
   <path id="path3533" fill="url(#linearGradient4020)" d="m-58.657 97.929s-11.306 100.56-10.583 161.04c0.39575 33.102 9.932 108.83 9.932 108.83l-16.553 0.963s-6.2428-127.45-5.4007-188.15c0.54308-39.146 22.605-82.683 22.605-82.683z"/>
   <path id="path3535" fill="url(#linearGradient4022)" d="m-34.552 156.37s-16.328 78.398-10.207 137.2c2.3475 22.552 11.395 74.527 11.395 74.527l-18.992 0.6595s-7.1624-87.279-6.1963-128.85c0.62307-26.808 24-83.541 24-83.541z"/>
   <path id="path3537" fill="url(#linearGradient4024)" d="m-3.4065 36.869l10.863 233.11-1.5545 98.749 13.097 0.037-9.1367-239.11-13.269-92.781z"/>
   <path id="path3541" fill="url(#linearGradient4026)" d="m-53.494 67.6l-8.8978 0.3955-7.0086 178.9 9.6214 120.8-16.036 1.069-5.2318-208.86 15.479-97.069 12.074 4.7623z"/>
   <path id="path3543" fill="url(#linearGradient4028)" d="m-80.914 123.63s37.357 108.79 36.721 157.22c-0.34841 26.506-8.7428 87.139-8.7428 87.139l14.571 0.771s5.4953-102.05 4.754-150.65c-0.47804-31.345-47.303-94.477-47.303-94.477z"/>
   <path id="path3545" fill="url(#linearGradient4030)" d="m-1.8776-22.885l-10.69 280.31 9.6214 110.36-16.036 0.9767-7.4996-268.16 24.604-123.49z"/>
   <path id="path3547" fill="url(#linearGradient4032)" d="m-25.313 24.738l-12.958 222.15 9.6214 120.8-16.036 1.069-5.2318-208.86 24.604-135.17z"/>
  </g>
  <g id="g3866" transform="matrix(-2.9933 0 0 2.9933 1205.9 -1608.3)">
   <path id="path3868" fill="url(#linearGradient4288)" d="m336.73 575.1c-1.6767 2.7475-6.8824 21.476-8.7361 21.156-1.8712 0.095093-2.0374-4.2367-2.2583-8.25-0.18753-3.406-0.40979-6.5866-1.7829-6.5938-1.7032-0.008972-8.6211 11.135-11.678 10.375-0.90656-0.22546-0.081421-6.6754-0.41602-8.5625l-3.7143 18.531-6.7452-16.156-6.0321 7.0938-4.368-4.125v70.375h106.44v-65.344l-4.368 3.8438-6.032-6.5938-6.7452 15-3.7143-17.219c-0.3346 1.7521 0.49054 7.7594-0.41602 7.9688-3.0567 0.70575-9.9747-9.6333-11.678-9.625-1.3731 0.006714-1.5953 2.9315-1.7829 6.0938-0.22095 3.726-0.38705 7.7758-2.2583 7.6875-1.8537 0.29651-7.0594-17.105-8.7361-19.656-1.6201 2.1484 1.5043 7.1016-1.0103 9.25l-2.3474-2.0938-4.6355-8.875-5.9726 5.6875c-2.5146-2.3141 0.6098-7.6547-1.0103-9.9688z"/>
   <path id="path3870" fill="url(#linearGradient4290)" d="m303.56 594.78s-5.8084 26.747-6.0856 40.584c-0.15173 7.5733-3.8068 24.898-3.8068 24.898l6.3447 0.2203s2.3928-29.158 2.07-43.046c-0.20813-8.9559 1.4778-22.656 1.4778-22.656z"/>
   <path id="path3872" fill="url(#linearGradient4292)" d="m311.65 570s3.777 33.596 3.5355 53.801c-0.13223 11.059-3.318 36.356-3.318 36.356l5.5301 0.3217s2.0856-42.577 1.8043-62.856c-0.18146-13.078-7.5517-27.622-7.5517-27.622z"/>
   <path id="path3874" fill="url(#linearGradient4294)" d="m309.09 579.98s5.6315 35.737 3.5866 55.382c-0.78424 7.5341-3.8068 24.898-3.8068 24.898l6.3447 0.2203s2.3928-29.158 2.07-43.046c-0.20813-8.9559-8.1945-37.455-8.1945-37.455z"/>
   <path id="path3876" fill="url(#linearGradient4296)" d="m299.51 549.61l-3.6291 77.875 0.5193 32.99-4.3755 0.0124 3.0524-79.881 4.433-30.996z"/>
   <path id="path3878" fill="url(#linearGradient4298)" d="m305.44 582.38s-8.7268 32.557-8.4852 48.736c0.1322 8.8549 3.318 29.111 3.318 29.111l-5.5301 0.2576s-2.0856-34.092-1.8042-50.33c0.1814-10.472 12.502-27.774 12.502-27.774z"/>
   <path id="path3880" fill="url(#linearGradient4300)" d="m306.64 559.7l-3.5682 0.3089 2.3414 59.765-3.2143 40.357 5.3571 0.3571 1.7478-69.774-4.9943-28.186 2.3305-2.8284z"/>
   <path id="path3882" fill="url(#linearGradient4302)" d="m322.47 578.59s-12.48 36.345-12.268 52.524c0.11642 8.8549 2.9208 29.111 2.9208 29.111l-4.8679 0.2576s-1.8358-34.092-1.5882-50.33c0.1597-10.472 15.803-31.563 15.803-31.563z"/>
   <path id="path3884" fill="url(#linearGradient4304)" d="m294.91 517.27l-3.5714 102.5 3.2143 40.357-5.3571 0.3571-2.5054-98.058 8.2197-45.156z"/>
   <path id="path3886" fill="url(#linearGradient4306)" d="m315.23 545.55l4.329 74.216-3.2143 40.357 5.3572 0.3571 1.7478-69.774-8.2197-45.156z"/>
   <path id="path3888" fill="url(#linearGradient3994)" d="m295.07 586.3s6.9195 35.232 6.6423 49.069c-0.1517 7.5733-3.8068 24.898-3.8068 24.898l6.3447 0.2203s2.3928-29.158 2.07-43.046c-0.20816-8.9559-11.25-31.142-11.25-31.142z"/>
   <path id="path3890" fill="url(#linearGradient4310)" d="m304.62 586.3s6.9195 35.232 6.6423 49.069c-0.1517 7.5733-3.8068 24.898-3.8068 24.898l6.3447 0.2203s2.3928-29.158 2.07-43.046c-0.20816-8.9559-11.25-31.142-11.25-31.142z"/>
   <path id="path3892" fill="url(#linearGradient4312)" d="m338.37 594.78s-5.8084 26.747-6.0856 40.584c-0.1517 7.5733-3.8068 24.898-3.8068 24.898l6.3447 0.2203s2.3928-29.158 2.07-43.046c-0.20816-8.9559 1.4777-22.656 1.4777-22.656z"/>
   <path id="path3894" fill="url(#linearGradient4314)" d="m341.98 570s3.7771 33.596 3.5355 53.801c-0.1322 11.059-3.318 36.356-3.318 36.356l5.5301 0.3217s2.0856-42.577 1.8043-62.856c-0.18143-13.078-7.5517-27.622-7.5517-27.622z"/>
   <path id="path3896" fill="url(#linearGradient4316)" d="m333.93 589.53s5.4547 26.191 3.4098 45.836c-0.78424 7.5341-3.8068 24.898-3.8068 24.898l6.3447 0.2203s2.3928-29.158 2.07-43.046c-0.20816-8.9559-8.0177-27.909-8.0177-27.909z"/>
   <path id="path3898" fill="url(#linearGradient4296)" d="m325.02 549.61l-3.6291 77.875 0.5193 32.99-4.3756 0.0124 3.0524-79.881 4.433-30.996z"/>
   <path id="path3900" fill="url(#linearGradient4298)" d="m333.9 582.38s-8.7268 32.557-8.4852 48.736c0.13223 8.8549 3.318 29.111 3.318 29.111l-5.5301 0.2576s-2.0856-34.092-1.8042-50.33c0.1814-10.472 12.502-27.774 12.502-27.774z"/>
   <path id="path3902" fill="url(#linearGradient4322)" d="m340.26 559.87l2.9725 0.1321 2.3414 59.765-3.2143 40.357 5.3571 0.3571 1.7478-69.774-5.1711-32.428-4.0335 1.5909z"/>
   <path id="path3904" fill="url(#linearGradient4302)" d="m349.42 578.59s-12.48 36.345-12.268 52.524c0.11642 8.8549 2.9208 29.111 2.9208 29.111l-4.8679 0.2576s-1.8358-34.092-1.5882-50.33c0.1597-10.472 15.803-31.563 15.803-31.563z"/>
   <path id="path3906" fill="url(#linearGradient3990)" d="m323.01 529.64l3.5714 93.644-3.2143 36.87 5.3571 0.3263 2.5054-89.585-8.2197-41.255z"/>
   <path id="path3908" fill="url(#linearGradient3992)" d="m330.84 545.55l4.329 74.216-3.2143 40.357 5.3571 0.3571 1.7478-69.774-8.2197-45.156z"/>
   <path id="path3910" fill="url(#linearGradient3994)" d="m336.02 586.3s6.9195 35.232 6.6423 49.069c-0.1517 7.5733-3.8068 24.898-3.8068 24.898l6.3447 0.2203s2.3928-29.158 2.07-43.046c-0.20816-8.9559-11.25-31.142-11.25-31.142z"/>
   <path id="path3912" fill="#4d9805" d="m338.97 586.3s6.9195 35.232 6.6423 49.069c-0.1517 7.5733-3.8068 24.898-3.8068 24.898l6.3447 0.2203s2.3928-29.158 2.07-43.046c-0.20813-8.9559-11.25-31.142-11.25-31.142z"/>
   <path id="path3914" fill="url(#linearGradient3996)" d="m362.38 594.78s5.8085 26.747 6.0856 40.584c0.1517 7.5733 3.8068 24.898 3.8068 24.898l-6.3447 0.2203s-2.3928-29.158-2.07-43.046c0.20816-8.9559-1.4778-22.656-1.4778-22.656z"/>
   <path id="path3916" fill="url(#linearGradient4020)" d="m388.29 570s-3.7771 33.596-3.5355 53.801c0.1322 11.059 3.318 36.356 3.318 36.356l-5.53 0.3217s-2.0856-42.577-1.8043-62.856c0.18143-13.078 7.5518-27.622 7.5518-27.622z"/>
   <path id="path3918" fill="url(#linearGradient4000)" d="m356.85 579.98s-5.6315 35.737-3.5866 55.382c0.78427 7.5341 3.8068 24.898 3.8068 24.898l-6.3447 0.2203s-2.3928-29.158-2.07-43.046c0.20813-8.9559 8.1945-37.455 8.1945-37.455z"/>
   <path id="path3920" fill="url(#linearGradient4002)" d="m366.43 549.61l3.6291 77.875-0.5193 32.99 4.3755 0.0124-3.0524-79.881-4.433-30.996z"/>
   <path id="path3922" fill="url(#linearGradient4004)" d="m360.5 582.38s8.7268 32.557 8.4852 48.736c-0.13223 8.8549-3.318 29.111-3.318 29.111l5.53 0.2576s2.0856-34.092 1.8043-50.33c-0.18143-10.472-12.502-27.774-12.502-27.774z"/>
   <path id="path3924" fill="url(#linearGradient4006)" d="m359.3 559.7l3.5682 0.3089-2.3414 59.765 3.2143 40.357-5.3571 0.3571-1.7478-69.774 4.9943-28.186-2.3304-2.8284z"/>
   <path id="path3926" fill="url(#linearGradient4028)" d="m376.97 578.59s12.48 36.345 12.268 52.524c-0.11639 8.8549-2.9208 29.111-2.9208 29.111l4.8679 0.2576s1.8358-34.092 1.5882-50.33c-0.1597-10.472-15.803-31.563-15.803-31.563z"/>
   <path id="path3928" fill="url(#linearGradient4010)" d="m356.53 517.27l3.5714 102.5-3.2143 40.357 5.3571 0.3571 2.5055-98.058-8.2197-45.156z"/>
   <path id="path3930" fill="url(#linearGradient4012)" d="m399.21 545.55l-4.329 74.216 3.2143 40.357-5.3571 0.3571-1.7478-69.774 8.2197-45.156z"/>
   <path id="path3932" fill="url(#linearGradient4014)" d="m370.87 586.3s-6.9195 35.232-6.6423 49.069c0.15167 7.5733 3.8068 24.898 3.8068 24.898l-6.3447 0.2203s-2.3928-29.158-2.07-43.046c0.20813-8.9559 11.25-31.142 11.25-31.142z"/>
   <path id="path3934" fill="url(#linearGradient4016)" d="m361.32 586.3s-6.9195 35.232-6.6423 49.069c0.1517 7.5733 3.8068 24.898 3.8068 24.898l-6.3447 0.2203s-2.3928-29.158-2.07-43.046c0.20816-8.9559 11.25-31.142 11.25-31.142z"/>
   <path id="path3936" fill="url(#linearGradient4018)" d="m376.07 594.78s5.8084 26.747 6.0856 40.584c0.15167 7.5733 3.8068 24.898 3.8068 24.898l-6.3447 0.2203s-2.3928-29.158-2.07-43.046c0.20816-8.9559-1.4777-22.656-1.4777-22.656z"/>
   <path id="path3938" fill="url(#linearGradient4020)" d="m372.46 570s-3.7771 33.596-3.5355 53.801c0.13223 11.059 3.318 36.356 3.318 36.356l-5.5301 0.3217s-2.0856-42.577-1.8043-62.856c0.18146-13.078 7.5518-27.622 7.5518-27.622z"/>
   <path id="path3940" fill="url(#linearGradient4022)" d="m380.51 589.53s-5.4547 26.191-3.4098 45.836c0.78424 7.5341 3.8068 24.898 3.8068 24.898l-6.3447 0.2203s-2.3928-29.158-2.07-43.046c0.20816-8.9559 8.0177-27.909 8.0177-27.909z"/>
   <path id="path3942" fill="url(#linearGradient4024)" d="m390.92 549.61l3.6291 77.875-0.5193 32.99 4.3755 0.0124-3.0524-79.881-4.433-30.996z"/>
   <path id="path3944" fill="url(#linearGradient4026)" d="m374.18 559.87l-2.9725 0.1321-2.3414 59.765 3.2143 40.357-5.3571 0.3571-1.7478-69.774 5.1711-32.428 4.0335 1.5909z"/>
   <path id="path3946" fill="url(#linearGradient4028)" d="m365.02 578.59s12.48 36.345 12.268 52.524c-0.11639 8.8549-2.9208 29.111-2.9208 29.111l4.8679 0.2576s1.8359-34.092 1.5882-50.33c-0.1597-10.472-15.803-31.563-15.803-31.563z"/>
   <path id="path3948" fill="url(#linearGradient4030)" d="m391.43 529.64l-3.5714 93.644 3.2143 36.87-5.3571 0.3263-2.5054-89.585 8.2197-41.255z"/>
   <path id="path3950" fill="url(#linearGradient4032)" d="m383.6 545.55l-4.329 74.216 3.2143 40.357-5.3571 0.3571-1.7478-69.774 8.2197-45.156z"/>
  </g>
  <g id="g4202">
   <path id="path4204" fill="url(#linearGradient4288)" d="m479.47 113.17c-5.0189 8.2242-20.601 64.284-26.15 63.328-5.6012 0.28462-6.0986-12.682-6.7599-24.695-0.56131-10.195-1.2266-19.716-5.3367-19.737-5.0981-0.026855-25.806 33.331-34.956 31.056-2.7136-0.6749-0.24365-19.982-1.2453-25.63l-11.118 55.47-20.191-48.361-18.056 21.234-13.075-12.348v210.66h318.6v-195.6l-13.075 11.506-18.056-19.737-20.19 44.9-11.118-51.541c-1.0016 5.2445 1.4683 23.226-1.2453 23.853-9.1496 2.1125-29.857-28.836-34.956-28.811-4.11 0.020111-4.7753 8.775-5.3367 18.241-0.66132 11.153-1.1586 23.275-6.7599 23.011-5.5488 0.88753-21.131-51.202-26.15-58.838-4.8496 6.431 4.5028 21.257-3.0242 27.688l-7.0267-6.2673-13.875-26.566-17.878 17.024c-7.5271-6.9268 1.8254-22.913-3.0241-29.84z"/>
   <path id="path4206" fill="url(#linearGradient4290)" d="m380.17 172.09s-17.387 80.062-18.216 121.48c-0.45407 22.669-11.395 74.527-11.395 74.527l18.992 0.6595s7.1624-87.279 6.1963-128.85c-0.62305-26.808 4.4234-67.817 4.4234-67.817z"/>
   <path id="path4208" fill="url(#linearGradient4292)" d="m404.39 97.929s11.306 100.56 10.583 161.04c-0.39575 33.102-9.9319 108.83-9.9319 108.83l16.553 0.963s6.2427-127.45 5.4007-188.15c-0.54315-39.146-22.605-82.683-22.605-82.683z"/>
   <path id="path4210" fill="url(#linearGradient4294)" d="m396.73 127.8s16.857 106.97 10.736 165.78c-2.3475 22.552-11.395 74.527-11.395 74.527l18.992 0.6595s7.1624-87.279 6.1963-128.85c-0.62314-26.808-24.529-112.12-24.529-112.12z"/>
   <path id="path4212" fill="url(#linearGradient4296)" d="m368.05 36.869l-10.863 233.11 1.5545 98.749-13.097 0.037 9.1367-239.11 13.269-92.781z"/>
   <path id="path4214" fill="url(#linearGradient4298)" d="m385.8 134.97s-26.122 97.454-25.399 145.88c0.39575 26.506 9.932 87.138 9.932 87.138l-16.553 0.7711s-6.2428-102.05-5.4007-150.65c0.54306-31.345 37.421-83.138 37.421-83.138z"/>
   <path id="path4216" fill="url(#linearGradient4300)" d="m389.39 67.07l-10.681 0.9246 7.0086 178.9-9.6214 120.8 16.036 1.069 5.2318-208.86-14.95-84.369 6.9758-8.4664z"/>
   <path id="path4218" fill="url(#linearGradient4302)" d="m436.76 123.63s-37.357 108.79-36.72 157.22c0.34842 26.506 8.7428 87.139 8.7428 87.139l-14.571 0.771s-5.4953-102.05-4.7541-150.65c0.47806-31.345 47.303-94.477 47.303-94.477z"/>
   <path id="path4220" fill="url(#linearGradient4304)" d="m354.28-59.926l-10.69 306.82 9.6214 120.8-16.036 1.069-7.4996-293.52 24.604-135.17z"/>
   <path id="path4222" fill="url(#linearGradient4306)" d="m415.09 24.738l12.958 222.15-9.6214 120.8 16.036 1.069 5.2318-208.86-24.604-135.17z"/>
   <path id="path4224" fill="url(#linearGradient3994)" d="m354.77 146.7s20.712 105.46 19.883 146.88c-0.4541 22.669-11.395 74.527-11.395 74.527l18.992 0.6595s7.1624-87.279 6.1963-128.85c-0.62305-26.808-33.676-93.217-33.676-93.217z"/>
   <path id="path4226" fill="url(#linearGradient4310)" d="m383.35 146.7s20.712 105.46 19.882 146.88c-0.45407 22.669-11.395 74.527-11.395 74.527l18.992 0.6595s7.1624-87.279 6.1963-128.85c-0.62314-26.808-33.676-93.217-33.676-93.217z"/>
   <path id="path4228" fill="url(#linearGradient4312)" d="m484.36 172.09s-17.387 80.062-18.216 121.48c-0.45407 22.669-11.395 74.527-11.395 74.527l18.992 0.6595s7.1624-87.279 6.1963-128.85c-0.62311-26.808 4.4233-67.817 4.4233-67.817z"/>
   <path id="path4230" fill="url(#linearGradient4314)" d="m495.18 97.929s11.306 100.56 10.583 161.04c-0.39575 33.102-9.932 108.83-9.932 108.83l16.553 0.963s6.2426-127.45 5.4006-188.15c-0.54303-39.146-22.605-82.683-22.605-82.683z"/>
   <path id="path4232" fill="url(#linearGradient4316)" d="m471.08 156.37s16.328 78.398 10.207 137.2c-2.3474 22.552-11.395 74.527-11.395 74.527l18.992 0.6595s7.1624-87.279 6.1963-128.85c-0.62314-26.808-24-83.541-24-83.541z"/>
   <path id="path4234" fill="url(#linearGradient4296)" d="m444.42 36.869l-10.863 233.11 1.5545 98.749-13.097 0.037 9.1367-239.11 13.269-92.781z"/>
   <path id="path4236" fill="url(#linearGradient4298)" d="m470.99 134.97s-26.122 97.454-25.399 145.88c0.39575 26.506 9.932 87.138 9.932 87.138l-16.553 0.7711s-6.2428-102.05-5.4007-150.65c0.54306-31.345 37.421-83.138 37.421-83.138z"/>
   <path id="path4238" fill="url(#linearGradient4322)" d="m490.02 67.6l8.8978 0.3955 7.0086 178.9-9.6214 120.8 16.036 1.069 5.2319-208.86-15.479-97.069-12.074 4.7623z"/>
   <path id="path4240" fill="url(#linearGradient4302)" d="m517.44 123.63s-37.357 108.79-36.72 157.22c0.34845 26.506 8.7428 87.139 8.7428 87.139l-14.571 0.771s-5.4952-102.05-4.754-150.65c0.47812-31.345 47.303-94.477 47.303-94.477z"/>
   <path id="path4242" fill="url(#linearGradient3990)" d="m438.4-22.885l10.69 280.31-9.6214 110.36 16.036 0.9767 7.4996-268.16-24.604-123.49z"/>
   <path id="path4244" fill="url(#linearGradient3992)" d="m461.84 24.738l12.958 222.15-9.6214 120.8 16.036 1.069 5.2318-208.86-24.604-135.17z"/>
   <path id="path4246" fill="url(#linearGradient3994)" d="m477.35 146.7s20.712 105.46 19.883 146.88c-0.45407 22.669-11.395 74.527-11.395 74.527l18.992 0.6595s7.1624-87.279 6.1964-128.85c-0.62314-26.808-33.676-93.217-33.676-93.217z"/>
   <path id="path4248" fill="#4d9805" d="m486.16 146.7s20.712 105.46 19.883 146.88c-0.45416 22.669-11.395 74.527-11.395 74.527l18.992 0.6595s7.1623-87.279 6.1962-128.85c-0.62305-26.808-33.675-93.217-33.675-93.217z"/>
   <path id="path4250" fill="url(#linearGradient3996)" d="m556.24 172.09s17.387 80.062 18.216 121.48c0.45428 22.669 11.395 74.527 11.395 74.527l-18.992 0.6595s-7.1624-87.279-6.1963-128.85c0.62305-26.808-4.4233-67.817-4.4233-67.817z"/>
   <path id="path4252" fill="url(#linearGradient4020)" d="m633.8 97.929s-11.306 100.56-10.583 161.04c0.39581 33.102 9.9321 108.83 9.9321 108.83l-16.553 0.963s-6.2428-127.45-5.4008-188.15c0.54303-39.146 22.605-82.683 22.605-82.683z"/>
   <path id="path4254" fill="url(#linearGradient4000)" d="m539.69 127.8s-16.857 106.97-10.736 165.78c2.3475 22.552 11.395 74.527 11.395 74.527l-18.992 0.6595s-7.1624-87.279-6.1962-128.85c0.62292-26.808 24.529-112.12 24.529-112.12z"/>
   <path id="path4256" fill="url(#linearGradient4002)" d="m568.36 36.869l10.863 233.11-1.5545 98.749 13.098 0.037-9.1368-239.11-13.269-92.781z"/>
   <path id="path4258" fill="url(#linearGradient4004)" d="m550.62 134.97s26.122 97.454 25.399 145.88c-0.39575 26.506-9.9319 87.138-9.9319 87.138l16.553 0.7711s6.2427-102.05 5.4006-150.65c-0.54309-31.345-37.421-83.138-37.421-83.138z"/>
   <path id="path4260" fill="url(#linearGradient4006)" d="m547.02 67.07l10.681 0.9246-7.0086 178.9 9.6214 120.8-16.036 1.069-5.2318-208.86 14.95-84.369-6.9758-8.4664z"/>
   <path id="path4262" fill="url(#linearGradient4028)" d="m599.92 123.63s37.357 108.79 36.721 157.22c-0.34845 26.506-8.7428 87.139-8.7428 87.139l14.571 0.771s5.4951-102.05 4.754-150.65c-0.47803-31.345-47.303-94.477-47.303-94.477z"/>
   <path id="path4264" fill="url(#linearGradient4010)" d="m538.73-59.926l10.69 306.82-9.6214 120.8 16.036 1.069 7.4996-293.52-24.604-135.17z"/>
   <path id="path4266" fill="url(#linearGradient4012)" d="m666.49 24.738l-12.958 222.15 9.6213 120.8-16.036 1.069-5.2317-208.86 24.604-135.17z"/>
   <path id="path4268" fill="url(#linearGradient4014)" d="m581.64 146.7s-20.712 105.46-19.882 146.88c0.45404 22.669 11.395 74.527 11.395 74.527l-18.992 0.6595s-7.1624-87.279-6.1962-128.85c0.62311-26.808 33.675-93.217 33.675-93.217z"/>
   <path id="path4270" fill="url(#linearGradient4016)" d="m553.07 146.7s-20.712 105.46-19.882 146.88c0.4541 22.669 11.395 74.527 11.395 74.527l-18.992 0.6595s-7.1625-87.279-6.1964-128.85c0.62311-26.808 33.675-93.217 33.675-93.217z"/>
   <path id="path4272" fill="url(#linearGradient4018)" d="m597.23 172.09s17.386 80.062 18.216 121.48c0.45404 22.669 11.395 74.527 11.395 74.527l-18.992 0.6595s-7.1623-87.279-6.1962-128.85c0.62305-26.808-4.4234-67.817-4.4234-67.817z"/>
   <path id="path4274" fill="url(#linearGradient4020)" d="m586.4 97.929s-11.306 100.56-10.583 161.04c0.39575 33.102 9.9319 108.83 9.9319 108.83l-16.553 0.963s-6.2427-127.45-5.4006-188.15c0.54303-39.146 22.605-82.683 22.605-82.683z"/>
   <path id="path4276" fill="url(#linearGradient4022)" d="m610.51 156.37s-16.328 78.398-10.207 137.2c2.3474 22.552 11.395 74.527 11.395 74.527l-18.992 0.6595s-7.1624-87.279-6.1962-128.85c0.62305-26.808 24-83.541 24-83.541z"/>
   <path id="path4278" fill="url(#linearGradient4024)" d="m641.66 36.869l10.863 233.11-1.5545 98.749 13.097 0.037-9.1367-239.11-13.269-92.781z"/>
   <path id="path4280" fill="url(#linearGradient4026)" d="m591.57 67.6l-8.8977 0.3955-7.0085 178.9 9.6214 120.8-16.036 1.069-5.2318-208.86 15.479-97.069 12.074 4.7623z"/>
   <path id="path4282" fill="url(#linearGradient4028)" d="m564.15 123.63s37.357 108.79 36.72 157.22c-0.34845 26.506-8.7429 87.139-8.7429 87.139l14.571 0.771s5.4953-102.05 4.754-150.65c-0.47803-31.345-47.303-94.477-47.303-94.477z"/>
   <path id="path4284" fill="url(#linearGradient4030)" d="m643.18-22.885l-10.69 280.31 9.6215 110.36-16.036 0.9767-7.4996-268.16 24.604-123.49z"/>
   <path id="path4286" fill="url(#linearGradient4032)" d="m619.75 24.738l-12.958 222.15 9.6214 120.8-16.036 1.069-5.2318-208.86 24.604-135.17z"/>
  </g>
  <rect id="rect4392" height="67.35" width="978.82" y="303.27" x="-312.11" fill="url(#linearGradient4400)"/>
 </g>
</svg>
