<?xml version="1.0" encoding="UTF-8" standalone="no"?>
<svg
   xmlns:osb="http://www.openswatchbook.org/uri/2009/osb"
   xmlns:dc="http://purl.org/dc/elements/1.1/"
   xmlns:cc="http://creativecommons.org/ns#"
   xmlns:rdf="http://www.w3.org/1999/02/22-rdf-syntax-ns#"
   xmlns:svg="http://www.w3.org/2000/svg"
   xmlns="http://www.w3.org/2000/svg"
   xmlns:sodipodi="http://sodipodi.sourceforge.net/DTD/sodipodi-0.dtd"
   xmlns:inkscape="http://www.inkscape.org/namespaces/inkscape"
   style="shape-rendering:geometricPrecision;text-rendering:geometricPrecision;image-rendering:optimizeQuality"
   fill-rule="evenodd"
   xml:space="preserve"
   height="66.986mm"
   width="89.038mm"
   version="1.0"
   clip-rule="evenodd"
   viewBox="0 0 4513 3395"
   id="svg4137"
   inkscape:version="0.91 r13725"
   sodipodi:docname="mowing.svg"><metadata
     id="metadata4399"><rdf:RDF><cc:Work
         rdf:about=""><dc:format>image/svg+xml</dc:format><dc:type
           rdf:resource="http://purl.org/dc/dcmitype/StillImage" /><dc:title></dc:title></cc:Work></rdf:RDF></metadata><sodipodi:namedview
     pagecolor="#ffffff"
     bordercolor="#666666"
     borderopacity="1"
     objecttolerance="10"
     gridtolerance="10"
     guidetolerance="10"
     inkscape:pageopacity="0"
     inkscape:pageshadow="2"
     inkscape:window-width="1334"
     inkscape:window-height="831"
     id="namedview4397"
     showgrid="false"
     inkscape:zoom="0.96358357"
     inkscape:cx="157.74449"
     inkscape:cy="118.67598"
     inkscape:window-x="0"
     inkscape:window-y="0"
     inkscape:window-maximized="0"
     inkscape:current-layer="svg4137" /><defs
     id="defs4139"><linearGradient
       inkscape:collect="always"
       id="linearGradient4959"
       osb:paint="gradient"><stop
         style="stop-color:#ff0000;stop-opacity:1;"
         offset="0"
         id="stop4961" /><stop
         style="stop-color:#ff0000;stop-opacity:0;"
         offset="1"
         id="stop4963" /></linearGradient><linearGradient
       id="linearGradient4941"
       osb:paint="solid"><stop
         style="stop-color:#000000;stop-opacity:1;"
         offset="0"
         id="stop4943" /></linearGradient><style
       type="text/css"
       id="style4141"><![CDATA[
    .fil1 {fill:none}
    .fil0 {fill:#2B2A29}
    .fil2 {fill:#B0CB1F}
   ]]></style></defs><g
     id="Warstwa_x0020_1"
     style="fill-opacity:1;fill:#6bbcff"><g
       id="_796059632"
       style="fill-opacity:1;fill:#6bbcff"><path
         class="fil0"
         d="m2904 2912c-6-1-11-2-16-2-18 1-37 3-59 7-126 54-63 340 165 205 37-22 119-218-93-213l3 3zm-45-39c249-109 341 272 144 336-430 142-284-392-144-336z"
         id="path4145"
         style="fill-opacity:1;fill:#6bbcff" /><path
         class="fil1"
         d="m2904 2912c-165-131-301 384 86 257 160-52 97-428-222-238"
         id="path4147"
         style="fill-opacity:1;fill:#6bbcff" /><path
         class="fil0"
         d="m3608 2891c-237-40-88 269 44 258 249-22 157-303-75-287 10 7 21 17 31 29zm-69-47c216-144 470 242 245 352-385 188-400-384-245-352z"
         id="path4149"
         style="fill-opacity:1;fill:#6bbcff" /><path
         class="fil1"
         d="m3608 2891c-238-149-178 434 157 267 192-95-51-450-267-280"
         id="path4151"
         style="fill-opacity:1;fill:#6bbcff" /><path
         class="fil0"
         d="m2685 3014c-364 28-451-294-310-450 392 7 685 41 1084 27 527-18 490-50 322 238 44-143 24-86 69-198-98-5-314 17-387 24-479 40-607 4-1067-27-74 272 49 338 289 386zm1172-400l2-6c-1 2-1 4-2 6z"
         id="path4153"
         style="fill-opacity:1;fill:#6bbcff" /><path
         class="fil1"
         d="m2685 3014c-469 0-313-419-310-419 337 0 519 66 963 36 87-6 554-38 537-12-2 3-89 194-94 210"
         id="path4155"
         style="fill-opacity:1;fill:#6bbcff" /><path
         class="fil0"
         d="m3067 2977c329-57 165-57 492 0-327 57-163 57-492 0z"
         id="path4157"
         style="fill-opacity:1;fill:#6bbcff" /><path
         class="fil1"
         d="m3067 2977h492"
         id="path4159"
         style="fill-opacity:1;fill:#6bbcff" /><path
         class="fil0"
         d="m2476 2558c472-629 30-95 775-303 506-141 180 184 431 315-105 25-150-167-170-232-67-218-306 208-784-29-89 120-118 131-252 249z"
         id="path4161"
         style="fill-opacity:1;fill:#6bbcff" /><path
         class="fil1"
         d="m2476 2558c76-52 240-283 246-285 414 239 758-209 816 59 16 74 52 238 144 238"
         id="path4163"
         style="fill-opacity:1;fill:#6bbcff" /><path
         class="fil0"
         d="m2648 2287c-287-277-940-758-1370-640 50 44 332 164 373 185-75-15-717-193-308-263 474-80 1056 352 1305 718zm-1377-648c0-1-1-1-1-2 0 1 0 1 1 2z"
         id="path4165"
         style="fill-opacity:1;fill:#6bbcff" /><path
         class="fil1"
         d="m2648 2287c-221-321-979-803-1380-668-144 49 375 206 383 213"
         id="path4167"
         style="fill-opacity:1;fill:#6bbcff" /><path
         class="fil0"
         d="m222 120c-183 158-271 304 3 445 647 333 880-510 212-516-163-1-236 39-375 108l107-84c242-139 723-92 745 258 51 796-1471 140-692-211z"
         id="path4169"
         style="fill-opacity:1;fill:#6bbcff" /><path
         class="fil1"
         d="m222 120c-683 392 673 901 654 212-9-330-543-404-814-175"
         id="path4171"
         style="fill-opacity:1;fill:#6bbcff" /><path
         class="fil0"
         d="m456 687c182 544 142 1215-24 1760 51-605 90-1152 24-1760z"
         id="path4173"
         style="fill-opacity:1;fill:#6bbcff" /><path
         class="fil1"
         d="m456 687c123 405 75 1340-24 1760"
         id="path4175"
         style="fill-opacity:1;fill:#6bbcff" /><path
         class="fil0"
         d="m567 1228c190 226 424 339 702 431-261 24-687-177-702-431z"
         id="path4177"
         style="fill-opacity:1;fill:#6bbcff" /><path
         class="fil1"
         d="m567 1228c53 190 463 431 702 431"
         id="path4179"
         style="fill-opacity:1;fill:#6bbcff" /><path
         class="fil0"
         d="m567 1265c193 269 233 354 567 431-327 64-507-124-567-431z"
         id="path4181"
         style="fill-opacity:1;fill:#6bbcff" /><path
         class="fil1"
         d="m567 1265c95 254 274 455 567 431"
         id="path4183"
         style="fill-opacity:1;fill:#6bbcff" /><path
         class="fil0"
         d="m481 2053c55 474-43 654-260 1063-8 15-22 24-36 33 7-31 2-16 15-44l-1 2c150-453 201-574 282-1054z"
         id="path4185"
         style="fill-opacity:1;fill:#6bbcff" /><path
         class="fil1"
         d="m481 2053c0 460-84 619-271 1058l-25 38"
         id="path4187"
         style="fill-opacity:1;fill:#6bbcff" /><path
         class="fil0"
         d="m444 2337c200 337 302 712 493 1058-263-230-421-722-493-1058z"
         id="path4189"
         style="fill-opacity:1;fill:#6bbcff" /><path
         class="fil1"
         d="m444 2337c98 242 332 910 493 1058"
         id="path4191"
         style="fill-opacity:1;fill:#6bbcff" /><path
         class="fil0"
         d="m469 490c221-62 160 1 283-148 49 186-115 225-283 148z"
         id="path4193"
         style="fill-opacity:1;fill:#6bbcff" /><path
         class="fil1"
         d="m469 490c80-3 251 65 283-148"
         id="path4195"
         style="fill-opacity:1;fill:#6bbcff" /><path
         class="fil0"
         d="m419 219c37-99 150-40 74 49 0 0-17-14-30-23 1 0 1 0 1-1s-39-22-45-25zm44 26c-7-5-12-8-14-9-4 8 7 12 14 9z"
         id="path4197"
         style="fill-opacity:1;fill:#6bbcff" /><path
         class="fil1"
         d="m419 219c54-19 68-25 74 49"
         id="path4199"
         style="fill-opacity:1;fill:#6bbcff" /><path
         class="fil0"
         d="m592 243c29-40 11-28 49-43 38 18 39 20 37 56-20 12-24 14-40 27-31-14-14-3-46-40z"
         id="path4201"
         style="fill-opacity:1;fill:#6bbcff" /><path
         class="fil1"
         d="m592 243c37 0 61-8 86 13"
         id="path4203"
         style="fill-opacity:1;fill:#6bbcff" /><path
         class="fil2"
         d="m2223 3086c-33-68 51-108 179 199-38-26-189-122-179-199zm39-8c3-5 3-10 2-11-1 5-2 9-2 11z"
         id="path4205"
         style="fill-opacity:1;fill:#6bbcff" /><path
         class="fil1"
         d="m2254 3125c-50-160 30 42 148 160"
         id="path4207"
         style="fill-opacity:1;fill:#6bbcff" /><path
         class="fil2"
         d="m2438 3160c-25-113 137-114 50 137-19-38-55-88-50-137zm30-14c8 1 13-1 14-6-2 1-7 3-14 6z"
         id="path4209"
         style="fill-opacity:1;fill:#6bbcff" /><path
         class="fil1"
         d="m2439 3162c55-116 34 21 49 135"
         id="path4211"
         style="fill-opacity:1;fill:#6bbcff" /><path
         class="fil2"
         d="m2599 3176c-6-5-14-10-17-11v1c2 8 9 11 17 10zm20 0c3 40-15 73-33 109-170-151 111-216 33-109z"
         id="path4213"
         style="fill-opacity:1;fill:#6bbcff" /><path
         class="fil1"
         d="m2611 3186c-6-97-54 12-25 99"
         id="path4215"
         style="fill-opacity:1;fill:#6bbcff" /><path
         class="fil2"
         d="m2685 3162c27 44 19 25 29 53-17 27-5 11-41 45h-1c-39-34-28-15-42-51 19-39 4-21 55-47z"
         id="path4217"
         style="fill-opacity:1;fill:#6bbcff" /><path
         class="fil1"
         d="m2685 3162c-18 55-12 46-12 98"
         id="path4219"
         style="fill-opacity:1;fill:#6bbcff" /><path
         class="fil2"
         d="m2771 3149l3 1c10-1 23 2 37 8-8-12-32-17-49-6 3-1 5-1 8-2l1-1zm3 1c119 39 10 103-20 66 17 3 65 4 50-18-2-1-32 13-33 13-13-8-22-16-26-23 4-14 3-6 25-38h4zm-29 38c-1-2-2-4-2-6-1 5-1 9-1 14l3-8zm-2-6c-5-13 3-25 19-30-9 5-17 15-19 30z"
         id="path4221"
         style="fill-opacity:1;fill:#6bbcff" /><path
         class="fil1"
         d="m2771 3149c28 84 0-5 0 62"
         id="path4223"
         style="fill-opacity:1;fill:#6bbcff" /><path
         class="fil2"
         d="m2771 3149c101-90 166 28 84 71l2 3c-63 68-55-13-49-49-16-11-37-25-37-25zm84 71c-3-6-6-22-16-20 7 11 3 5 16 20zm-46-50c1-7 2-12 2-12-4 3-4 7-2 12zm3 6c3 6 8 10 13 12l1-1c-1-1-7-5-14-11z"
         id="path4225"
         style="fill-opacity:1;fill:#6bbcff" /><path
         class="fil1"
         d="m2771 3149c180-14-17 82 86 74"
         id="path4227"
         style="fill-opacity:1;fill:#6bbcff" /><path
         class="fil2"
         d="m2907 3162l48 22-36 39-48-22 36-39z"
         id="path4229"
         style="fill-opacity:1;fill:#6bbcff" /><path
         class="fil1"
         d="m2907 3162l12 61"
         id="path4231"
         style="fill-opacity:1;fill:#6bbcff" /><path
         class="fil2"
         d="m3017 3223l12 49-49-12-11-49 48 12z"
         id="path4233"
         style="fill-opacity:1;fill:#6bbcff" /><path
         class="fil1"
         d="m3017 3223l-37 37"
         id="path4235"
         style="fill-opacity:1;fill:#6bbcff" /><path
         class="fil2"
         d="m3010 3168c0-24 6-40 34-55l41 19c15 67-9 83-43 153-35-98-40-71-32-117zm56 14c9-5 13-6 17-15-9 7-14 11-17 15z"
         id="path4237"
         style="fill-opacity:1;fill:#6bbcff" /><path
         class="fil1"
         d="m3017 3223c58-117 25-95 25 62"
         id="path4239"
         style="fill-opacity:1;fill:#6bbcff" /><path
         class="fil2"
         d="m3116 3198c15 50 20 33 13 52l-6-2-31 24h-1l-33-21c-5-33-8-18 9-46l49-7z"
         id="path4241"
         style="fill-opacity:1;fill:#6bbcff" /><path
         class="fil1"
         d="m3116 3198c-32 52-25 30-25 74"
         id="path4243"
         style="fill-opacity:1;fill:#6bbcff" /><path
         class="fil2"
         d="m3214 3149c6 82 8 87-24 160-89-49-68-115 24-160z"
         id="path4245"
         style="fill-opacity:1;fill:#6bbcff" /><path
         class="fil1"
         d="m3214 3149c-39 59-52 92-24 160"
         id="path4247"
         style="fill-opacity:1;fill:#6bbcff" /><path
         class="fil2"
         d="m3264 3198l43 44-43 43-43-43 43-44z"
         id="path4249"
         style="fill-opacity:1;fill:#6bbcff" /><path
         class="fil1"
         d="m3264 3198v87"
         id="path4251"
         style="fill-opacity:1;fill:#6bbcff" /><path
         class="fil2"
         d="m3325 3174c23 77 28 53-24 111h-1c-64-65-51-75 25-111z"
         id="path4253"
         style="fill-opacity:1;fill:#6bbcff" /><path
         class="fil1"
         d="m3325 3174c-32 73-24 46-24 111"
         id="path4255"
         style="fill-opacity:1;fill:#6bbcff" /><path
         class="fil2"
         d="m3375 3149c32 74 31 61-25 111-56-65-51-72 25-111z"
         id="path4257"
         style="fill-opacity:1;fill:#6bbcff" /><path
         class="fil1"
         d="m3375 3149c-20 61-25 54-25 111"
         id="path4259"
         style="fill-opacity:1;fill:#6bbcff" /><path
         class="fil2"
         d="m3448 3112c18 97 17 88-49 160-51-88-38-113 49-160z"
         id="path4261"
         style="fill-opacity:1;fill:#6bbcff" /><path
         class="fil1"
         d="m3448 3112c-23 46-53 107-49 160"
         id="path4263"
         style="fill-opacity:1;fill:#6bbcff" /><path
         class="fil2"
         d="m3510 3149c12 89 15 75-49 136-51-82-39-104 49-136z"
         id="path4265"
         style="fill-opacity:1;fill:#6bbcff" /><path
         class="fil1"
         d="m3510 3149c-30 44-49 83-49 136"
         id="path4267"
         style="fill-opacity:1;fill:#6bbcff" /><path
         class="fil2"
         d="m3584 3162c-3 9-34 71-33 73-1-1 0-1-2-2-3 1-22 54-27 64-89-61-62-150 62-135z"
         id="path4269"
         style="fill-opacity:1;fill:#6bbcff" /><path
         class="fil1"
         d="m3584 3162c-89 53-83 53-62 135"
         id="path4271"
         style="fill-opacity:1;fill:#6bbcff" /><path
         class="fil2"
         d="m3608 3186c25 47 23 26 21 61-23 13-9 4-45 25-36-35-28-15-32-55 24-28 7-15 56-31z"
         id="path4273"
         style="fill-opacity:1;fill:#6bbcff" /><path
         class="fil1"
         d="m3608 3186c-15 46-24 46-24 86"
         id="path4275"
         style="fill-opacity:1;fill:#6bbcff" /><path
         class="fil2"
         d="m3719 3174c5 147-32 32-24 111-64 35-113-92 24-111z"
         id="path4277"
         style="fill-opacity:1;fill:#6bbcff" /><path
         class="fil1"
         d="m3719 3174c-20 25-88 89-24 111"
         id="path4279"
         style="fill-opacity:1;fill:#6bbcff" /><path
         class="fil2"
         d="m3818 3174c-6 88 2 59-49 123h-1c-65-83-45-99 50-123z"
         id="path4281"
         style="fill-opacity:1;fill:#6bbcff" /><path
         class="fil1"
         d="m3818 3174c-58 71-49 47-49 123"
         id="path4283"
         style="fill-opacity:1;fill:#6bbcff" /><path
         class="fil2"
         d="m3892 3186l43 49-43 50-43-50 43-49z"
         id="path4285"
         style="fill-opacity:1;fill:#6bbcff" /><path
         class="fil1"
         d="m3892 3186v99"
         id="path4287"
         style="fill-opacity:1;fill:#6bbcff" /><path
         class="fil2"
         d="m4027 3174c19 49 16 27 16 64-22 11-14 8-28 34-46 9-96-62 12-98z"
         id="path4289"
         style="fill-opacity:1;fill:#6bbcff" /><path
         class="fil1"
         d="m4027 3174c-17 41-41 67-12 98"
         id="path4291"
         style="fill-opacity:1;fill:#6bbcff" /><path
         class="fil2"
         d="m4126 3149c13 74 14 78-25 136-85-50-49-97 25-136z"
         id="path4293"
         style="fill-opacity:1;fill:#6bbcff" /><path
         class="fil1"
         d="m4126 3149c-35 73-42 70-25 136"
         id="path4295"
         style="fill-opacity:1;fill:#6bbcff" /><path
         class="fil2"
         d="m4224 3149c15 59 14 34 12 75-8 0-8-11-16-5 1 6 15 26 16 29-43 61-146-33-12-99z"
         id="path4297"
         style="fill-opacity:1;fill:#6bbcff" /><path
         class="fil1"
         d="m4224 3149c-24 52-55 102 12 99"
         id="path4299"
         style="fill-opacity:1;fill:#6bbcff" /><path
         class="fil2"
         d="m4310 3063c-9 50-4 28-13 64-25 7-15 7-36 35-58-9-75-117 49-99z"
         id="path4301"
         style="fill-opacity:1;fill:#6bbcff" /><path
         class="fil1"
         d="m4310 3063c-35 23-76 48-49 99"
         id="path4303"
         style="fill-opacity:1;fill:#6bbcff" /><path
         class="fil2"
         d="m4323 3026c-27 30-25 27-32 36 0-4-2-8-5-10-2 3-1 9 1 16l-4 5 1 1c2 0 3-1 4-2 4 11 9 23 10 28-101 58-138-162 25-74zm-32 36l-4 6c0 1 1 3 1 4 3-2 4-6 3-10z"
         id="path4305"
         style="fill-opacity:1;fill:#6bbcff" /><path
         class="fil1"
         d="m4323 3026c-122 8-62 68-25 74"
         id="path4307"
         style="fill-opacity:1;fill:#6bbcff" /><path
         class="fil2"
         d="m4384 3038l43 74-43 74-43-74 43-74z"
         id="path4309"
         style="fill-opacity:1;fill:#6bbcff" /><path
         class="fil1"
         d="m4384 3038v148"
         id="path4311"
         style="fill-opacity:1;fill:#6bbcff" /><path
         class="fil2"
         d="m4470 3075l43 50-43 49-43-49 43-50z"
         id="path4313"
         style="fill-opacity:1;fill:#6bbcff" /><path
         class="fil1"
         d="m4470 3075v99"
         id="path4315"
         style="fill-opacity:1;fill:#6bbcff" /><path
         class="fil2"
         d="m2242 3137c72-86 168 255-146 62 14 26 29 50 35 61-58-15-86-41-117-94-92-158 130-26 145-18 125 70 151 38 83-11zm-175-12v-1 1z"
         id="path4317"
         style="fill-opacity:1;fill:#6bbcff" /><path
         class="fil1"
         d="m2242 3137c79-21 113 216-208-21-10 39 71 135 97 144"
         id="path4319"
         style="fill-opacity:1;fill:#6bbcff" /><path
         class="fil2"
         d="m2094 3137c76 55 84 60 25 135h-1c-55-67-53-48-24-135z"
         id="path4321"
         style="fill-opacity:1;fill:#6bbcff" /><path
         class="fil1"
         d="m2094 3137c26 86 25 62 25 135"
         id="path4323"
         style="fill-opacity:1;fill:#6bbcff" /><path
         class="fil2"
         d="m2057 3101h32c20 60 3 74-32 122-35-48-52-62-32-122h32z"
         id="path4325"
         style="fill-opacity:1;fill:#6bbcff" /><path
         class="fil1"
         d="m2057 3149v74"
         id="path4327"
         style="fill-opacity:1;fill:#6bbcff" /><path
         class="fil2"
         d="m1922 3149c0 82 18 123-74 148-5-86-31-119 74-148z"
         id="path4329"
         style="fill-opacity:1;fill:#6bbcff" /><path
         class="fil1"
         d="m1922 3149c-79 90-3 65-74 148"
         id="path4331"
         style="fill-opacity:1;fill:#6bbcff" /><path
         class="fil2"
         d="m1746 3216c-54-110 135-63 15 56-13-16-50-47-33-75 0 0 7 11 18 19zm8 5c10 3 21 2 32-10l-3-3-29 13z"
         id="path4333"
         style="fill-opacity:1;fill:#6bbcff" /><path
         class="fil1"
         d="m1749 3223c25-88 12 11 12 49"
         id="path4335"
         style="fill-opacity:1;fill:#6bbcff" /><path
         class="fil2"
         d="m1749 3223c10-168 173-102 37 25l-10-31c-7 2-16 4-27 6zm46-15c10 3 20 1 27-7-13 3-22 6-27 7z"
         id="path4337"
         style="fill-opacity:1;fill:#6bbcff" /><path
         class="fil1"
         d="m1749 3223c80-95 55-59 37 25"
         id="path4339"
         style="fill-opacity:1;fill:#6bbcff" /><path
         class="fil2"
         d="m1700 3186l43 19-43 18-43-18 43-19z"
         id="path4341"
         style="fill-opacity:1;fill:#6bbcff" /><path
         class="fil1"
         d="m1700 3186v37"
         id="path4343"
         style="fill-opacity:1;fill:#6bbcff" /><path
         class="fil2"
         d="m1601 3162s-26 1-29 4c5 26 53-8-44 119-68-182 80-207 73-123z"
         id="path4345"
         style="fill-opacity:1;fill:#6bbcff" /><path
         class="fil1"
         d="m1601 3162c-51-63-62 42-73 123"
         id="path4347"
         style="fill-opacity:1;fill:#6bbcff" /><path
         class="fil2"
         d="m1515 3223c35 33 24 14 36 55-30 34-11 22-60 31-20-37-13-20-24-50 24-27 9-14 48-36z"
         id="path4349"
         style="fill-opacity:1;fill:#6bbcff" /><path
         class="fil1"
         d="m1515 3223c-3 28-6 64-24 86"
         id="path4351"
         style="fill-opacity:1;fill:#6bbcff" /><path
         class="fil2"
         d="m1444 3220l-5-16c-1 7 1 12 5 16zm33 6c4-1 8-3 11-6l1 1c-10 57-42 69-85 101-27-203 145-180 73-96z"
         id="path4353"
         style="fill-opacity:1;fill:#6bbcff" /><path
         class="fil1"
         d="m1454 3248c44-132-34 27-50 74"
         id="path4355"
         style="fill-opacity:1;fill:#6bbcff" /><path
         class="fil2"
         d="m1404 3198l16 51-53-1-15-51 52 1z"
         id="path4357"
         style="fill-opacity:1;fill:#6bbcff" /><path
         class="fil1"
         d="m1404 3198l-37 50"
         id="path4359"
         style="fill-opacity:1;fill:#6bbcff" /><path
         class="fil2"
         d="m1306 3211c-25 72-50 154-123 184-10-113 0-162 123-184z"
         id="path4361"
         style="fill-opacity:1;fill:#6bbcff" /><path
         class="fil1"
         d="m1306 3211c-114 87-68 111-123 184"
         id="path4363"
         style="fill-opacity:1;fill:#6bbcff" /><path
         class="fil2"
         d="m1170 3162c-12 75-12 116-86 147-18-88-23-137 86-147z"
         id="path4365"
         style="fill-opacity:1;fill:#6bbcff" /><path
         class="fil1"
         d="m1170 3162c-85 72-34 64-86 147"
         id="path4367"
         style="fill-opacity:1;fill:#6bbcff" /><path
         class="fil2"
         d="m1072 3186l6 81-68 42-8-81 70-42z"
         id="path4369"
         style="fill-opacity:1;fill:#6bbcff" /><path
         class="fil1"
         d="m1072 3186c-6 12-59 111-62 123"
         id="path4371"
         style="fill-opacity:1;fill:#6bbcff" /><path
         class="fil2"
         d="m1023 3174c52 79 21 109-50 148-40-66 1-105 50-148z"
         id="path4373"
         style="fill-opacity:1;fill:#6bbcff" /><path
         class="fil1"
         d="m1023 3174c-6 93-40 84-50 148"
         id="path4375"
         style="fill-opacity:1;fill:#6bbcff" /><path
         class="fil2"
         d="m986 3186c6 84 1 106-74 148-53-71 13-119 74-148z"
         id="path4377"
         style="fill-opacity:1;fill:#6bbcff" /><path
         class="fil1"
         d="m986 3186c-27 57-72 103-74 148"
         id="path4379"
         style="fill-opacity:1;fill:#6bbcff" /><path
         class="fil2"
         d="m875 3223l8 76-70 23-1-69 63-30z"
         id="path4381"
         style="fill-opacity:1;fill:#6bbcff" /><path
         class="fil1"
         d="m875 3223c-24 54-27 55-62 99"
         id="path4383"
         style="fill-opacity:1;fill:#6bbcff" /><path
         class="fil2"
         d="m789 3211c14 82-1 164-99 160 8-86 24-110 99-160z"
         id="path4385"
         style="fill-opacity:1;fill:#6bbcff" /><path
         class="fil1"
         d="m789 3211c-20 49-53 131-99 160"
         id="path4387"
         style="fill-opacity:1;fill:#6bbcff" /><path
         class="fil2"
         d="m651 3245c-14-15-9-8-17-21l-1-1c-4 15 6 21 18 22zm8 0c5 0 9-1 13-2 23 33-74 64-80 66-16-186 149-105 67-64z"
         id="path4389"
         style="fill-opacity:1;fill:#6bbcff" /><path
         class="fil1"
         d="m653 3248c22-80-35 26-61 61"
         id="path4391"
         style="fill-opacity:1;fill:#6bbcff" /><path
         class="fil2"
         d="m506 3174l5 55-55-6-5-55 55 6z"
         id="path4393"
         style="fill-opacity:1;fill:#6bbcff" /><path
         class="fil1"
         d="m506 3174l-50 49"
         id="path4395"
         style="fill-opacity:1;fill:#6bbcff" /></g></g></svg>